<svg xmlns="http://www.w3.org/2000/svg" fill-rule="evenodd" stroke-linejoin="round" stroke-miterlimit="2" clip-rule="evenodd" viewBox="0 0 200 84"><path fill="#505152" d="M4.27 79.45h8.64v2.73H0v-1.86l8.4-13.08H0V64.5h12.7v1.78L4.27 79.45zM26.2 74.4h-7.32v5.05h8.55v2.73h-12.1V64.5H27.4v2.74h-8.5v4.44h7.32v2.73l-.02-.01zm6.95.7v7.08H29.6V64.5h6.67c2 0 3.6.46 4.72 1.38 1.13.92 1.7 2.2 1.7 3.84 0 .92-.24 1.7-.72 2.36a4.98 4.98 0 01-2.1 1.6c1.05.3 1.8.8 2.25 1.53.46.73.7 1.62.7 2.68v1.3c0 .5.06 1 .2 1.55.12.53.35.93.68 1.2v.25h-3.65c-.32-.27-.53-.7-.63-1.3-.1-.6-.14-1.2-.14-1.72V77.9c0-.88-.24-1.57-.73-2.05-.48-.5-1.15-.74-2.03-.74h-3.37v-.01zm0-2.72h3.06c1 0 1.75-.2 2.23-.63.5-.42.74-1.04.74-1.87 0-.8-.25-1.45-.74-1.93-.48-.47-1.2-.7-2.16-.7h-3.12v5.13h-.01zm27.1 2.55c0 2.17-.7 3.96-2.06 5.38a7.13 7.13 0 01-5.36 2.13 7.78 7.78 0 01-3.43-.76l-.97 1.66H46.7l1.44-2.48a6.54 6.54 0 01-1.95-2.54c-.47-1-.7-2.14-.7-3.37v-3.18c0-2.16.68-3.95 2.03-5.37a7 7 0 015.3-2.13 7.94 7.94 0 014.26 1.22l1-1.7h1.73l-1.58 2.7a6.76 6.76 0 011.48 2.36c.34.9.52 1.88.52 2.92v3.18l.02-.02zm-11.22.02c0 .6.07 1.16.2 1.67.1.5.3.95.54 1.3l.08.02 5.67-9.76a3.55 3.55 0 00-2.68-1.16c-1.2 0-2.15.44-2.8 1.32-.67.88-1 2-1 3.4v3.2l-.01.01zm7.67-3.22a6.15 6.15 0 00-.3-1.94l-.07-.03-5.45 9.38a3.62 3.62 0 001.96.55c1.22 0 2.16-.44 2.84-1.33a5.45 5.45 0 001.02-3.43v-3.2zm24.84-4.49h-5v14.94H73V67.24h-4.97V64.5h13.5v2.74h.01zm15.79 7.69c0 2.17-.7 3.96-2.06 5.38a7.09 7.09 0 01-5.34 2.13c-2.18 0-3.95-.7-5.3-2.12a7.37 7.37 0 01-2.05-5.37v-3.18c0-2.16.68-3.95 2.04-5.37a6.98 6.98 0 015.3-2.13c2.2 0 3.97.7 5.35 2.13a7.41 7.41 0 012.06 5.37v3.18-.02zm-3.55-3.2c0-1.37-.34-2.5-1.03-3.4a3.4 3.4 0 00-2.83-1.3 3.3 3.3 0 00-2.8 1.3c-.67.9-1 2.02-1 3.4v3.22c0 1.4.33 2.54 1 3.42.67.9 1.6 1.33 2.8 1.33 1.22 0 2.17-.44 2.85-1.33.67-.88 1-2.02 1-3.42v-3.2l.01-.02zm26.72 3.2c0 2.17-.7 3.96-2.06 5.38a7.1 7.1 0 01-5.35 2.13c-2.18 0-3.95-.7-5.3-2.12a7.37 7.37 0 01-2.05-5.37v-3.18c0-2.16.68-3.95 2.03-5.37a7 7 0 015.3-2.13c2.2 0 3.98.7 5.35 2.13a7.38 7.38 0 012.07 5.37v3.18l.01-.02zm-3.55-3.2c0-1.37-.34-2.5-1.03-3.4a3.43 3.43 0 00-2.84-1.3c-1.2 0-2.14.43-2.8 1.3-.67.9-1 2.02-1 3.4v3.22c0 1.4.34 2.54 1 3.42a3.3 3.3 0 002.8 1.33c1.23 0 2.17-.44 2.85-1.33a5.43 5.43 0 001.02-3.42v-3.22zm20.59 10.45H134l-7.1-12.08h-.08v12.1h-3.54V64.5h3.54l7.14 12.07h.07V64.5h3.54v17.7l-.03-.02zm6.86-2.73h7.87v2.73h-11.4V64.5h3.53v14.95zm10.12-14.95h3.54v17.7h-3.54V64.5zm21.36 17.68h-3.53L165.2 70.1h-.06v12.1h-3.54V64.5h3.54l7.14 12.07h.07V64.5h3.53v17.7-.02zm14.17-7.78h-7.32v5.05h8.56v2.73h-12.1V64.5h12.07v2.74h-8.54v4.44h7.32v2.73l.01-.01z"/><g transform="matrix(.53956 0 0 .53956 -60.536 -188.362)"><clipPath id="a"><path d="M468.4 432.74l-48 .13c-.91 8.72-3.04 15.38-7.54 20.32-.22.24-.5.58-.72.81l56.3-.12a8.5 8.5 0 008.44-8.48l-.02-4.22a8.45 8.45 0 00-8.44-8.44h-.03zm-1.05 7.4a3.2 3.2 0 013.16 3.17 3.21 3.21 0 01-3.15 3.2h-12.69a3.17 3.17 0 11-.02-6.33l12.7-.05z"/></clipPath><g clip-path="url(#a)"><path fill="url(#_Linear2)" fill-rule="nonzero" d="M412.14 454v-21.26h64.74V454h-64.74z"/></g></g><path fill="#ff9000" fill-rule="nonzero" d="M155.64 30.39c0-3.72-.49-6.4-1.47-8.02a4.67 4.67 0 00-4.24-2.43 4.6 4.6 0 00-4.22 2.43c-.95 1.63-1.42 4.3-1.42 8.02v11.68c0 3.78.48 6.48 1.44 8.1a4.66 4.66 0 004.27 2.41 4.6 4.6 0 004.2-2.42c.96-1.61 1.44-4.3 1.44-8.1V30.4zm11.25 10.98c0 6.56-1.53 11.52-4.57 14.87-3.05 3.35-7.16 5.02-12.32 5.02-5.2 0-9.34-1.67-12.38-5.02-3.05-3.35-4.58-8.3-4.58-14.87V31.15c0-6.56 1.52-11.52 4.54-14.87 3.03-3.35 7.15-5.02 12.35-5.02 5.19 0 9.3 1.68 12.37 5.04 3.06 3.36 4.59 8.31 4.59 14.85v10.22z"/><path fill="#0170c0" fill-rule="nonzero" d="M109.88 53.05h17.89v7.5h-30V54.8l17.18-22.84H98.3v-7.5h28.9v5.54l-17.32 23.06zM92.52 53.22a8.86 8.86 0 01-2.6.37 3.1 3.1 0 01-2.34-.9c-.58-.61-.86-1.61-.86-3.01V31.94h6.07v-7.5h-6.07V15.6h-9.75V49.7c0 4 .9 6.93 2.72 8.78 1.81 1.85 4.4 2.77 7.76 2.77a17.2 17.2 0 005.9-1l-.83-7.04zM69.46 40.1c0-5-1.35-8.98-4.04-11.92-2.7-2.93-6.47-4.4-11.35-4.4-4.96-.03-8.92 1.7-11.86 5.17-2.95 3.47-4.43 7.89-4.43 13.25v1.34c0 5.14 1.56 9.38 4.68 12.71 3.11 3.34 7.27 5.01 12.48 5.01 2.91 0 5.56-.4 7.94-1.19 2.39-.8 4.3-1.8 5.78-3l-2.64-6.02c-1.69.93-3.25 1.62-4.67 2.05-1.43.43-3.22.65-5.38.65-2.42 0-4.34-.76-5.75-2.3a8.6 8.6 0 01-1.49-2.22c-.03-.07-.05-.13-.08-.2-.04-.08-.08-.16-.11-.24-2.02-4.65-1.54-12.51 1.43-15.63a5.07 5.07 0 014.1-1.87c1.96 0 3.42.61 4.4 1.85.96 1.23 1.44 2.89 1.44 4.96v.86h-8.97v6.45h18.52V40.1zM21.9 55.91h9.78v4.65H21.9zM.2 55.91h9.75v4.65H.2zM28.6 27.21A9.7 9.7 0 0025.7 25s-1.41-.61-2.16-.8L.2 15.6v36.83h9.75V34.3a7.14 7.14 0 016.04-3.01c1.98 0 3.46.5 4.44 1.52.98 1.01 1.47 2.74 1.47 5.17v14.45h9.78V38c0-4.9-1.03-8.5-3.08-10.79"/><g transform="matrix(.53956 0 0 .53956 -60.536 -188.362)"><clipPath id="b"><path d="M468.34 405.24l-59.24.1a8.51 8.51 0 00-8.45 8.5v4.24a8.56 8.56 0 008.49 8.45l59.24-.15a8.46 8.46 0 008.43-8.46l-.01-4.24c-.01-4.65-3.8-8.44-8.41-8.44h-.05zm-50.77 10.7c0 2.9-2.34 5.26-5.28 5.3a5.3 5.3 0 01-5.29-5.32 5.26 5.26 0 015.28-5.27 5.27 5.27 0 015.3 5.28zm49.73-3.3a3.17 3.17 0 010 6.34l-12.7.03a3.2 3.2 0 01-3.19-3.16 3.18 3.18 0 013.17-3.18l12.72-.03z"/></clipPath><g clip-path="url(#b)"><path fill="url(#_Linear4)" fill-rule="nonzero" d="M394.22 420.88l24.81-45.24 64.21 35.22-24.8 45.23-64.22-35.21z"/></g></g><g transform="matrix(.53956 0 0 .53956 -60.536 -188.362)"><clipPath id="c"><path d="M468.27 377.73l-59.24.14a8.44 8.44 0 00-8.43 8.46v4.25a8.5 8.5 0 008.45 8.44l59.28-.13a8.5 8.5 0 008.43-8.48v-4.24a8.5 8.5 0 00-8.48-8.44zm-50.75 10.69a5.28 5.28 0 11-10.56.03 5.28 5.28 0 0110.56-.03zm33.84-.07a3.21 3.21 0 013.17-3.18l12.69-.04a3.2 3.2 0 013.18 3.18 3.16 3.16 0 01-3.17 3.17l-12.68.04a3.22 3.22 0 01-3.2-3.17z"/></clipPath><g clip-path="url(#c)"><path fill="url(#_Linear6)" fill-rule="nonzero" d="M394.16 393.38l24.82-45.25 64.2 35.22-24.81 45.25-64.21-35.22z"/></g></g><defs><linearGradient id="_Linear2" x1="0" x2="1" y1="0" y2="0" gradientTransform="rotate(-90 449.84 5.331) scale(44.3851)" gradientUnits="userSpaceOnUse"><stop offset="0" stop-color="#015591"/><stop offset="1" stop-color="#79c7ff"/></linearGradient><linearGradient id="_Linear4" x1="0" x2="1" y1="0" y2="0" gradientTransform="scale(97.3955) rotate(-61.256 6.108 -1.247)" gradientUnits="userSpaceOnUse"><stop offset="0" stop-color="#015591"/><stop offset="1" stop-color="#79c7ff"/></linearGradient><linearGradient id="_Linear6" x1="0" x2="1" y1="0" y2="0" gradientTransform="rotate(-61.256 583.71 -114.807) scale(97.3958)" gradientUnits="userSpaceOnUse"><stop offset="0" stop-color="#015591"/><stop offset="1" stop-color="#79c7ff"/></linearGradient></defs></svg>